<svg fill="none" height="20" viewBox="0 0 24 20" width="24" xmlns="http://www.w3.org/2000/svg"><path d="m23.4984 2.6232c-.276-1.032-1.0896-1.8456-2.1216-2.1216-1.872-.50159975-9.3768-.5016-9.3768-.5016s-7.5048.00000025-9.3768.5016c-1.032.276-1.8456 1.0896-2.1216 2.1216-.50160004 1.872-.5016 6.9768-.5016 6.9768s-.00000004 5.1048.5016 6.9768c.276 1.032 1.0896 1.8456 2.1216 2.1216 1.872.5016 9.3768.5016 9.3768.5016s7.5048 0 9.3768-.5016c1.0332-.276 1.8456-1.0896 2.1216-2.1216.5016-1.872.5016-6.9768.5016-6.9768s0-5.1048-.5016-6.9768zm-13.8984 11.1336v-8.3136l7.2 4.1568z" fill="#869ab8"/></svg>