<svg xmlns="http://www.w3.org/2000/svg"  viewBox="0 0 48 48" width="144px" height="144px"><path fill="#ff9800" d="M27,30h3v12c0,0.552-0.448,1-1,1h-1c-0.552,0-1-0.448-1-1V30z"/><path d="M27,30h3v6l-3-3V30z" opacity=".07"/><path d="M27,31h3v6l-3-3V31z" opacity=".05"/><linearGradient id="1MVFnomcT1q3HGPxxiYxia" x1="7.89" x2="15.556" y1="30.033" y2="42.45" gradientUnits="userSpaceOnUse"><stop offset="0" stop-color="#21ad64"/><stop offset="1" stop-color="#088242"/></linearGradient><path fill="url(#1MVFnomcT1q3HGPxxiYxia)" d="M19,36v3H6v-3H19z"/><path d="M9,36v3H6v-3H9z" opacity=".07"/><path d="M10,36v3H6v-3H10z" opacity=".05"/><linearGradient id="1MVFnomcT1q3HGPxxiYxib" x1="10.572" x2="18.239" y1="28.377" y2="40.794" gradientUnits="userSpaceOnUse"><stop offset="0" stop-color="#21ad64"/><stop offset="1" stop-color="#088242"/></linearGradient><path fill="url(#1MVFnomcT1q3HGPxxiYxib)" d="M19,30v3H6v-3H19z"/><path d="M9,30v3H6v-3H9z" opacity=".07"/><path d="M10,30v3H6v-3H10z" opacity=".05"/><path d="M17,36v3h3v-3H17z" opacity=".07"/><path d="M16,36v3h4v-3H16z" opacity=".05"/><path d="M17,30v3h3v-3H17z" opacity=".07"/><path d="M16,30v3h4v-3H16z" opacity=".05"/><path fill="#ff9800" d="M44,43h-4.776l-17.5-16H18.75v-4h2.973c0.999,0,1.962,0.374,2.699,1.048L40.776,39H41 c1.657,0,3,1.343,3,3V43z"/><linearGradient id="1MVFnomcT1q3HGPxxiYxic" x1="12.147" x2="25.136" y1="22.983" y2="41.562" gradientUnits="userSpaceOnUse"><stop offset="0" stop-color="#21ad64"/><stop offset="1" stop-color="#088242"/></linearGradient><path fill="url(#1MVFnomcT1q3HGPxxiYxic)" d="M19,24h1c0.552,0,1,0.448,1,1v17c0,0.552-0.448,1-1,1h-1c-0.552,0-1-0.448-1-1V25	C18,24.448,18.448,24,19,24z"/><linearGradient id="1MVFnomcT1q3HGPxxiYxid" x1="3.415" x2="16.404" y1="29.087" y2="47.667" gradientUnits="userSpaceOnUse"><stop offset="0" stop-color="#21ad64"/><stop offset="1" stop-color="#088242"/></linearGradient><path fill="url(#1MVFnomcT1q3HGPxxiYxid)" d="M6,24h1c0.552,0,1,0.448,1,1v17c0,0.552-0.448,1-1,1H6c-0.552,0-1-0.448-1-1V25	C5,24.448,5.448,24,6,24z"/><linearGradient id="1MVFnomcT1q3HGPxxiYxie" x1="5" x2="21" y1="8.414" y2="8.414" gradientUnits="userSpaceOnUse"><stop offset="0" stop-color="#f7572f"/><stop offset=".523" stop-color="#f7552d"/><stop offset=".712" stop-color="#f75026"/><stop offset=".846" stop-color="#f7461b"/><stop offset=".954" stop-color="#f7390a"/><stop offset="1" stop-color="#f73100"/></linearGradient><path fill="url(#1MVFnomcT1q3HGPxxiYxie)" d="M21,11.828V13H5l0-1.172c0-0.53,0.211-1.039,0.586-1.414l6-6c0.781-0.781,2.047-0.781,2.828,0	l6,6C20.789,10.789,21,11.298,21,11.828z"/><linearGradient id="1MVFnomcT1q3HGPxxiYxif" x1="7.327" x2="20.994" y1="11.338" y2="29.005" gradientUnits="userSpaceOnUse"><stop offset="0" stop-color="#2aa4f4"/><stop offset="1" stop-color="#007ad9"/></linearGradient><path fill="url(#1MVFnomcT1q3HGPxxiYxif)" d="M5,12v13c0,1.105,0.895,2,2,2h12c1.105,0,2-0.895,2-2V12c0-0.552-0.448-1-1-1H6	C5.448,11,5,11.448,5,12z"/><linearGradient id="1MVFnomcT1q3HGPxxiYxig" x1="8" x2="18" y1="19" y2="19" gradientUnits="userSpaceOnUse"><stop offset="0" stop-color="#3079d6"/><stop offset="1" stop-color="#297cd2"/></linearGradient><path fill="url(#1MVFnomcT1q3HGPxxiYxig)" d="M13,14c-2.75,0-5,2.25-5,5s2.25,5,5,5s5-2.25,5-5S15.75,14,13,14z"/><path d="M9,20c0-2.75,2.25-5,5-5c1.121,0,2.147,0.387,2.984,1.016C16.069,14.801,14.629,14,13,14	c-2.75,0-5,2.25-5,5c0,1.629,0.801,3.069,2.016,3.984C9.387,22.147,9,21.121,9,20z" opacity=".07"/><path d="M10,21c0-2.75,2.25-5,5-5c0.862,0,1.662,0.241,2.371,0.629C16.521,15.073,14.888,14,13,14	c-2.75,0-5,2.25-5,5c0,1.888,1.073,3.521,2.629,4.371C10.241,22.662,10,21.862,10,21z" opacity=".05"/></svg>