<svg width="24" height="24" viewBox="0 0 24 24" fill="none" xmlns="http://www.w3.org/2000/svg">
<path d="M12 19.137C11.7433 19.4098 11.4334 19.6272 11.0894 19.7756C10.7454 19.924 10.3746 20.0004 10 20H3.75C3.28587 20 2.84075 19.8156 2.51256 19.4874C2.18437 19.1592 2 18.7141 2 18.25V5.75C2 4.784 2.784 4 3.75 4H10C10.788 4 11.499 4.331 12 4.863C12.2567 4.59015 12.5666 4.37281 12.9106 4.22438C13.2546 4.07595 13.6254 3.99959 14 4H20.25C21.216 4 22 4.784 22 5.75V18.25C22 18.7141 21.8156 19.1592 21.4874 19.4874C21.1592 19.8156 20.7141 20 20.25 20H14C13.6254 20.0004 13.2546 19.924 12.9106 19.7756C12.5666 19.6272 12.2567 19.4098 12 19.137ZM3.5 5.75V18.25C3.5 18.388 3.612 18.5 3.75 18.5H10C10.69 18.5 11.25 17.94 11.25 17.25V6.75C11.25 6.06 10.69 5.5 10 5.5H3.75C3.6837 5.5 3.62011 5.52634 3.57322 5.57322C3.52634 5.62011 3.5 5.6837 3.5 5.75ZM12.75 17.25C12.75 17.94 13.31 18.5 14 18.5H20.25C20.3163 18.5 20.3799 18.4737 20.4268 18.4268C20.4737 18.3799 20.5 18.3163 20.5 18.25V5.75C20.5 5.6837 20.4737 5.62011 20.4268 5.57322C20.3799 5.52634 20.3163 5.5 20.25 5.5H14C13.31 5.5 12.75 6.06 12.75 6.75V17.25Z" fill="#0D6EFD"/>
</svg>
