<svg width="24" height="24" viewBox="0 0 24 24" fill="none" xmlns="http://www.w3.org/2000/svg">
<path d="M8.14399 6.30701C8.57799 6.07501 9.04499 6.00101 9.49999 6.00101C10.026 6.00101 10.638 6.17401 11.132 6.57801C11.649 7.00201 12 7.65201 12 8.50001C12 9.47501 11.311 10.004 10.923 10.302L10.838 10.368C10.414 10.701 10.25 10.879 10.25 11.25C10.25 11.4489 10.171 11.6397 10.0303 11.7803C9.88967 11.921 9.69891 12 9.49999 12C9.30108 12 9.11032 11.921 8.96966 11.7803C8.82901 11.6397 8.74999 11.4489 8.74999 11.25C8.74999 10.116 9.46099 9.54201 9.91199 9.18801C10.425 8.78501 10.5 8.69501 10.5 8.50001C10.5 8.10301 10.351 7.87801 10.18 7.73901C9.98604 7.58625 9.74687 7.50219 9.49999 7.50001C9.20499 7.50001 9.00199 7.54901 8.84999 7.63001C8.70699 7.70601 8.55599 7.84001 8.40999 8.11001C8.36305 8.19668 8.29949 8.27326 8.22294 8.33536C8.1464 8.39747 8.05838 8.4439 7.96389 8.47199C7.86941 8.50008 7.77032 8.50928 7.67228 8.49908C7.57424 8.48887 7.47917 8.45946 7.39249 8.41251C7.30582 8.36556 7.22924 8.302 7.16714 8.22546C7.10503 8.14892 7.0586 8.06089 7.03051 7.96641C7.00242 7.87192 6.99322 7.77283 7.00342 7.67479C7.01363 7.57675 7.04305 7.48168 7.08999 7.39501C7.35399 6.90901 7.70199 6.54301 8.14399 6.30701ZM9.49999 15C9.76521 15 10.0196 14.8946 10.2071 14.7071C10.3946 14.5196 10.5 14.2652 10.5 14C10.5 13.7348 10.3946 13.4804 10.2071 13.2929C10.0196 13.1054 9.76521 13 9.49999 13C9.23478 13 8.98042 13.1054 8.79289 13.2929C8.60535 13.4804 8.49999 13.7348 8.49999 14C8.49999 14.2652 8.60535 14.5196 8.79289 14.7071C8.98042 14.8946 9.23478 15 9.49999 15Z" fill="#0D6EFD"/>
<path d="M9.5 3C8.23851 2.99979 6.99733 3.31778 5.89134 3.92454C4.78535 4.5313 3.85028 5.40724 3.17265 6.47129C2.49502 7.53533 2.09673 8.75311 2.01464 10.0119C1.93255 11.2708 2.16931 12.53 2.703 13.673L1.978 16.515C1.92479 16.7238 1.92643 16.9427 1.98277 17.1507C2.03912 17.3586 2.14824 17.5484 2.29957 17.7018C2.45089 17.8551 2.63928 17.9667 2.84646 18.0258C3.05363 18.0849 3.27256 18.0895 3.482 18.039C4.232 17.859 5.385 17.582 6.412 17.337C7.43168 17.7968 8.5413 18.0227 9.65959 17.9982C10.7779 17.9737 11.8765 17.6993 12.8751 17.1952C13.8736 16.6911 14.7467 15.9701 15.4305 15.0848C16.1143 14.1996 16.5914 13.1727 16.8269 12.0792C17.0625 10.9857 17.0504 9.85338 16.7917 8.76516C16.5329 7.67694 16.0341 6.66037 15.3316 5.7899C14.6291 4.91943 13.7409 4.21712 12.7318 3.73439C11.7228 3.25165 10.6186 3.00073 9.5 3ZM3.5 10.5C3.5004 9.1953 3.92606 7.92628 4.71248 6.88523C5.49891 5.84419 6.60324 5.08785 7.85815 4.73083C9.11305 4.37381 10.4501 4.43556 11.6668 4.90672C12.8834 5.37789 13.9134 6.23279 14.6005 7.34189C15.2876 8.45099 15.5945 9.75384 15.4746 11.053C15.3548 12.3522 14.8147 13.5769 13.9362 14.5416C13.0578 15.5062 11.8889 16.1583 10.6065 16.3989C9.32421 16.6395 7.9984 16.4556 6.83 15.875L6.587 15.754L6.322 15.817L3.534 16.484C3.734 15.704 3.996 14.672 4.224 13.776L4.294 13.5L4.164 13.247C3.72604 12.3977 3.49833 11.4556 3.5 10.5Z" fill="#0D6EFD"/>
<path d="M14.5 21C12.53 21 10.739 20.241 9.39999 19H9.49999C10.218 19 10.915 18.911 11.581 18.743C12.445 19.225 13.441 19.5 14.501 19.5C15.461 19.5 16.367 19.275 17.17 18.875L17.413 18.754L17.678 18.817C18.599 19.037 19.643 19.262 20.418 19.427C20.242 18.676 20.003 17.671 19.776 16.776L19.706 16.5L19.836 16.247C20.274 15.3977 20.5017 14.4556 20.5 13.5C20.5005 12.4969 20.2493 11.5096 19.7694 10.6287C19.2894 9.74786 18.5962 9.00149 17.753 8.45801C17.5767 7.74373 17.3077 7.05557 16.953 6.41101C17.9457 6.75476 18.8552 7.30316 19.6225 8.0207C20.3899 8.73824 20.998 9.60893 21.4075 10.5764C21.817 11.5439 22.0188 12.5865 21.9997 13.6369C21.9807 14.6873 21.7413 15.722 21.297 16.674C21.55 17.682 21.807 18.774 21.969 19.477C22.0166 19.6808 22.0119 19.8932 21.9556 20.0947C21.8992 20.2963 21.793 20.4803 21.6466 20.6298C21.5003 20.7794 21.3186 20.8896 21.1183 20.9503C20.9181 21.011 20.7057 21.0201 20.501 20.977C19.774 20.825 18.631 20.581 17.588 20.337C16.6176 20.7754 15.5648 21.0014 14.5 21Z" fill="#0D6EFD"/>
</svg>
