<svg width="24" height="24" viewBox="0 0 24 24" fill="none" xmlns="http://www.w3.org/2000/svg">
<path d="M9.48053 22.03C9.37741 22.03 9.27211 22.0127 9.17117 21.976C8.79959 21.8416 8.57073 21.4853 8.61642 21.1109L9.55885 13.3706H6.87036C6.61626 13.3706 6.37521 13.2654 6.20987 13.0828C6.04453 12.9001 5.97144 12.658 6.01016 12.4205L7.75057 1.69935C7.81627 1.29689 8.18132 1 8.61076 1H15.5724C15.8404 1 16.0936 1.11711 16.2585 1.31792C16.4234 1.51874 16.4817 1.77976 16.416 2.02635L14.4968 9.24706H17.7479C18.0729 9.24706 18.3705 9.4186 18.5202 9.69199C18.6699 9.96538 18.6464 10.2948 18.4593 10.5464L10.1924 21.6799C10.0261 21.9042 9.75769 22.03 9.48053 22.03ZM7.88458 11.7212H10.5352C10.7832 11.7212 11.0195 11.8218 11.1848 11.997C11.3497 12.1727 11.428 12.4065 11.3993 12.6403L10.7375 18.0801L16.0714 10.8965H13.3799C13.1119 10.8965 12.8587 10.7794 12.6937 10.5785C12.5288 10.3777 12.4705 10.1167 12.5362 9.87012L14.4559 2.64941H9.35739L7.88458 11.7212Z" fill="#0D6EFD"/>
</svg>
