<svg width="24" height="24" viewBox="0 0 24 24" fill="none" xmlns="http://www.w3.org/2000/svg">
<path d="M15.75 2C16.3467 2 16.919 2.23705 17.341 2.65901C17.7629 3.08097 18 3.65326 18 4.25V19.75C18 20.3467 17.7629 20.919 17.341 21.341C16.919 21.7629 16.3467 22 15.75 22H8.25C7.65326 22 7.08097 21.7629 6.65901 21.341C6.23705 20.919 6 20.3467 6 19.75V4.25C6 3.65326 6.23705 3.08097 6.65901 2.65901C7.08097 2.23705 7.65326 2 8.25 2H15.75ZM15.75 3.5H8.25C8.05109 3.5 7.86032 3.57902 7.71967 3.71967C7.57902 3.86032 7.5 4.05109 7.5 4.25V19.75C7.5 20.164 7.836 20.5 8.25 20.5H15.75C15.9489 20.5 16.1397 20.421 16.2803 20.2803C16.421 20.1397 16.5 19.9489 16.5 19.75V4.25C16.5 4.05109 16.421 3.86032 16.2803 3.71967C16.1397 3.57902 15.9489 3.5 15.75 3.5ZM13.249 17.5C13.4479 17.4997 13.6388 17.5785 13.7796 17.719C13.9205 17.8594 13.9997 18.0501 14 18.249C14.0003 18.4479 13.9215 18.6388 13.781 18.7796C13.6406 18.9205 13.4499 18.9997 13.251 19L10.751 19.004C10.5521 19.0043 10.3612 18.9255 10.2204 18.785C10.0795 18.6446 10.0003 18.4539 10 18.255C9.99973 18.0561 10.0785 17.8652 10.219 17.7244C10.3594 17.5835 10.5501 17.5043 10.749 17.504L13.249 17.5Z" fill="#0D6EFD"/>
</svg>
