<svg width="24" height="24" viewBox="0 0 24 24" fill="none" xmlns="http://www.w3.org/2000/svg">
<path d="M17.8122 12.3386C17.9382 12.2591 18.001 12.1297 18.001 11.9999C18.001 11.8705 17.9382 11.7407 17.8122 11.6612C15.1817 9.99943 9.92029 6.6762 7.28936 5.01479C7.19313 4.95391 7.08616 4.93819 6.98744 4.95673C6.89369 4.97447 6.80819 5.02366 6.74665 5.09542C6.68801 5.16355 6.65166 5.25184 6.65166 5.35344C6.65166 8.67667 6.65166 15.3227 6.65166 18.646C6.65166 18.8282 6.76937 18.9689 6.92177 19.0241C7.03659 19.0656 7.17082 19.0588 7.28895 18.9842C9.92029 17.3232 15.1813 14 17.8122 12.3386ZM5 19.3874C5 15.6936 5 8.30617 5 4.61284C5 4.02181 5.33041 3.47876 5.86238 3.19655C6.39476 2.91353 7.04114 2.93772 7.54956 3.25904C10.4737 5.1059 16.3221 8.79923 19.2458 10.6465C19.7183 10.9448 20 11.4512 20 12.0003C20 12.5494 19.7179 13.0558 19.2458 13.3541C16.3221 15.201 10.4733 18.8939 7.54956 20.7412C7.27738 20.9133 6.96514 21 6.65207 21C6.38113 21 6.10978 20.9347 5.86238 20.8037C5.33041 20.521 5 19.9784 5 19.3874Z" fill="#0D6EFD"/>
</svg>
