<svg width="24" height="24" viewBox="0 0 24 24" fill="none" xmlns="http://www.w3.org/2000/svg">
<path d="M4.675 10.225L7.325 11.35C7.625 10.75 7.94583 10.1583 8.2875 9.57498C8.62917 8.99165 8.99167 8.43332 9.375 7.89998L7.4 7.49998L4.675 10.225ZM8.525 12.25L11.85 15.575C12.8 15.1417 13.6917 14.65 14.525 14.1C15.3583 13.55 16.0333 13.0167 16.55 12.5C17.9 11.15 18.8917 9.76665 19.525 8.34998C20.1583 6.93332 20.5 5.33332 20.55 3.54998C18.7667 3.59998 17.1667 3.94165 15.75 4.57498C14.3333 5.20832 12.95 6.19998 11.6 7.54998C11.0833 8.06665 10.55 8.74165 10 9.57498C9.45 10.4083 8.95833 11.3 8.525 12.25ZM14.25 9.84998C13.9167 9.51665 13.75 9.10415 13.75 8.61248C13.75 8.12082 13.9167 7.70832 14.25 7.37498C14.5833 7.04165 14.9958 6.87498 15.4875 6.87498C15.9792 6.87498 16.3917 7.04165 16.725 7.37498C17.0583 7.70832 17.225 8.12082 17.225 8.61248C17.225 9.10415 17.0583 9.51665 16.725 9.84998C16.3917 10.1833 15.9792 10.35 15.4875 10.35C14.9958 10.35 14.5833 10.1833 14.25 9.84998ZM13.875 19.425L16.6 16.7L16.2 14.725C15.6667 15.1083 15.1083 15.4708 14.525 15.8125C13.9417 16.1542 13.35 16.475 12.75 16.775L13.875 19.425ZM22.025 2.07498C22.175 4.34165 21.8917 6.40832 21.175 8.27498C20.4583 10.1417 19.275 11.9 17.625 13.55C17.6083 13.5667 17.5917 13.5833 17.575 13.6C17.5583 13.6167 17.5417 13.6333 17.525 13.65L18.075 16.4C18.125 16.65 18.1125 16.8917 18.0375 17.125C17.9625 17.3583 17.8333 17.5667 17.65 17.75L13.375 22.05L11.25 17.1L7 12.85L2.05 10.725L6.35 6.44998C6.53333 6.26665 6.74167 6.13748 6.975 6.06248C7.20833 5.98748 7.45 5.97498 7.7 6.02498L10.45 6.57498C10.4667 6.55832 10.4833 6.54582 10.5 6.53748C10.5167 6.52915 10.5333 6.51665 10.55 6.49998C12.2 4.84998 13.9583 3.66248 15.825 2.93748C17.6917 2.21248 19.7583 1.92498 22.025 2.07498ZM3.725 15.875C4.30833 15.2917 5.02083 14.9958 5.8625 14.9875C6.70417 14.9792 7.41667 15.2667 8 15.85C8.58333 16.4333 8.87083 17.1458 8.8625 17.9875C8.85417 18.8292 8.55833 19.5417 7.975 20.125C7.54167 20.5583 6.87083 20.9167 5.9625 21.2C5.05417 21.4833 3.69167 21.75 1.875 22C2.125 20.1833 2.3875 18.8167 2.6625 17.9C2.9375 16.9833 3.29167 16.3083 3.725 15.875ZM4.775 16.95C4.54167 17.2 4.33333 17.5917 4.15 18.125C3.96667 18.6583 3.80833 19.3417 3.675 20.175C4.50833 20.0417 5.19167 19.8833 5.725 19.7C6.25833 19.5167 6.65 19.3083 6.9 19.075C7.21667 18.7917 7.37917 18.4375 7.3875 18.0125C7.39583 17.5875 7.25 17.2167 6.95 16.9C6.63333 16.6 6.2625 16.4542 5.8375 16.4625C5.4125 16.4708 5.05833 16.6333 4.775 16.95Z" fill="#0D6EFD"/>
</svg>
