<svg width="24" height="24" viewBox="0 0 24 24" fill="none" xmlns="http://www.w3.org/2000/svg">
<path d="M12 2C6.48603 2 2 6.48603 2 12C2 17.514 6.48603 22 12 22C17.514 22 22 17.514 22 12C22 6.48603 17.514 2 12 2ZM12 3.5C16.7033 3.5 20.5 7.29669 20.5 12C20.5 16.7033 16.7033 20.5 12 20.5C7.29669 20.5 3.5 16.7033 3.5 12C3.5 7.29669 7.29669 3.5 12 3.5ZM8.98535 5.98633C8.72939 5.99039 8.48472 6.09245 8.30175 6.27148C8.2918 6.28072 8.28203 6.29016 8.27246 6.2998C8.04945 6.52742 7.94825 6.84768 8 7.16211V13.3379C7.98236 13.4452 7.98236 13.5547 8 13.6621V17C7.9949 17.3606 8.18437 17.6961 8.49587 17.8779C8.80737 18.0597 9.19263 18.0597 9.50413 17.8779C9.81563 17.6961 10.0051 17.3606 10 17V14.5H12.25C12.2884 14.5 12.3202 14.4786 12.3584 14.4775L14.7002 17.5996C14.9098 17.8982 15.2652 18.059 15.6278 18.0192C15.9904 17.9794 16.3026 17.7454 16.4425 17.4085C16.5823 17.0716 16.5276 16.6853 16.2998 16.4004L14.3799 13.8398C15.622 13.0954 16.5 11.7941 16.5 10.25C16.5 7.91461 14.5854 6 12.25 6H9.16211C9.10371 5.99022 9.04456 5.98564 8.98535 5.98633ZM10 8H12.25C13.5046 8 14.5 8.99539 14.5 10.25C14.5 11.5046 13.5046 12.5 12.25 12.5H10V8Z" fill="#0D6EFD"/>
</svg>
