<svg xmlns="http://www.w3.org/2000/svg" xmlns:xlink="http://www.w3.org/1999/xlink" viewBox="0,0,256,256" width="24px" height="24px"><g fill="#c469ee" fill-rule="nonzero" stroke="none" stroke-width="1" stroke-linecap="butt" stroke-linejoin="miter" stroke-miterlimit="10" stroke-dasharray="" stroke-dashoffset="0" font-family="none" font-weight="none" font-size="none" text-anchor="none" style="mix-blend-mode: normal"><g transform="scale(5.33333,5.33333)"><path d="M24,4c-11.02793,0 -20,8.97207 -20,20c0,11.02793 8.97207,20 20,20c11.02793,0 20,-8.97207 20,-20c0,-11.02793 -8.97207,-20 -20,-20zM24,7c9.40662,0 17,7.59339 17,17c0,9.40661 -7.59338,17 -17,17c-9.40661,0 -17,-7.59339 -17,-17c0,-9.40661 7.59339,-17 17,-17zM17.9707,11.97266c-0.51192,0.00812 -1.00125,0.21224 -1.36719,0.57031c-0.01991,0.01848 -0.03945,0.03736 -0.05859,0.05664c-0.44602,0.45523 -0.64841,1.09576 -0.54492,1.72461v12.35156c-0.03527,0.21471 -0.03527,0.43373 0,0.64844v6.67578c-0.0102,0.72127 0.36875,1.39216 0.99175,1.75578c0.623,0.36361 1.39351,0.36361 2.01651,0c0.623,-0.36361 1.00195,-1.0345 0.99175,-1.75578v-5h4.5c0.07679,0 0.14047,-0.04286 0.2168,-0.04492l4.68359,6.24414c0.41912,0.59714 1.13011,0.91873 1.85531,0.83918c0.7252,-0.07956 1.34956,-0.54764 1.62925,-1.22144c0.27969,-0.6738 0.17034,-1.44644 -0.28534,-2.01618l-3.83984,-5.12109c2.48427,-1.48891 4.24023,-4.09156 4.24023,-7.17969c0,-4.67078 -3.82922,-8.5 -8.5,-8.5h-6.17578c-0.1168,-0.01956 -0.2351,-0.02871 -0.35352,-0.02734zM20,16h4.5c2.50922,0 4.5,1.99078 4.5,4.5c0,2.50922 -1.99078,4.5 -4.5,4.5h-4.5z"></path></g></g></svg>