<svg width="24" height="24" viewBox="0 0 24 24" fill="none" xmlns="http://www.w3.org/2000/svg">
<path d="M6.25 4H17.75C18.5801 3.99995 19.3788 4.31755 19.9822 4.88767C20.5856 5.45779 20.948 6.23719 20.995 7.066L21 7.25V16.75C21.0001 17.5801 20.6824 18.3788 20.1123 18.9822C19.5422 19.5856 18.7628 19.948 17.934 19.995L17.75 20H6.25C5.41986 20.0001 4.62117 19.6824 4.01777 19.1123C3.41437 18.5422 3.052 17.7628 3.005 16.934L3 16.75V7.25C2.99995 6.41986 3.31755 5.62117 3.88767 5.01777C4.45779 4.41437 5.23719 4.052 6.066 4.005L6.25 4ZM17.75 5.5H6.25C5.81081 5.50002 5.38768 5.66517 5.06461 5.96268C4.74154 6.26019 4.54214 6.6683 4.506 7.106L4.5 7.25V16.75C4.50002 17.1892 4.66517 17.6123 4.96268 17.9354C5.26019 18.2585 5.6683 18.4579 6.106 18.494L6.25 18.5H17.75C18.1893 18.5 18.6126 18.3347 18.9357 18.037C19.2588 17.7392 19.4581 17.3309 19.494 16.893L19.5 16.75V7.25C19.5 6.81065 19.3347 6.38739 19.037 6.06429C18.7392 5.74119 18.3309 5.5419 17.893 5.506L17.75 5.5ZM10.053 9.585C10.1054 9.48039 10.1929 9.39747 10.3001 9.35069C10.4074 9.30392 10.5277 9.29624 10.64 9.329L10.724 9.362L15.106 11.552C15.1824 11.5901 15.2477 11.6471 15.2958 11.7176C15.3439 11.7881 15.3732 11.8698 15.3808 11.9548C15.3884 12.0398 15.3741 12.1253 15.3393 12.2033C15.3045 12.2812 15.2504 12.3489 15.182 12.4L15.106 12.447L10.724 14.638C10.6546 14.6728 10.5781 14.691 10.5004 14.6911C10.4228 14.6912 10.3462 14.6732 10.2767 14.6385C10.2073 14.6039 10.1468 14.5535 10.1002 14.4915C10.0535 14.4294 10.022 14.3574 10.008 14.281L10 14.19V9.809C10 9.73123 10.0182 9.65453 10.053 9.585Z" fill="#0D6EFD"/>
</svg>
