<svg width="24" height="24" viewBox="0 0 24 24" fill="none" xmlns="http://www.w3.org/2000/svg">
<path d="M2.75001 16.5H21.25C21.4399 16.5003 21.6227 16.5727 21.7613 16.7025C21.9 16.8323 21.9843 17.0099 21.9971 17.1994C22.0099 17.3889 21.9503 17.5762 21.8304 17.7235C21.7105 17.8708 21.5392 17.9671 21.351 17.993L21.25 18H2.75101C2.55963 18.0019 2.37475 17.9307 2.23422 17.8007C2.0937 17.6708 2.00816 17.4921 1.99512 17.3011C1.98208 17.1102 2.04254 16.9215 2.1641 16.7737C2.28566 16.6258 2.45914 16.5301 2.64901 16.506L2.75001 16.5ZM18.25 5C19.216 5 20 5.784 20 6.75V14.25C20 14.7141 19.8156 15.1592 19.4874 15.4874C19.1593 15.8156 18.7141 16 18.25 16H5.75001C5.28588 16 4.84076 15.8156 4.51257 15.4874C4.18438 15.1592 4.00001 14.7141 4.00001 14.25V6.75C4.00001 5.784 4.78301 5 5.75001 5H18.25ZM18.25 6.5H5.75001C5.6837 6.5 5.62011 6.52634 5.57323 6.57322C5.52634 6.62011 5.50001 6.6837 5.50001 6.75V14.25C5.50001 14.388 5.61201 14.5 5.75001 14.5H18.25C18.3163 14.5 18.3799 14.4737 18.4268 14.4268C18.4737 14.3799 18.5 14.3163 18.5 14.25V6.75C18.5 6.6837 18.4737 6.62011 18.4268 6.57322C18.3799 6.52634 18.3163 6.5 18.25 6.5Z" fill="#0D6EFD"/>
</svg>
