<svg xmlns="http://www.w3.org/2000/svg" version="1.1" xmlns:xlink="http://www.w3.org/1999/xlink" xmlns:svgjs="http://svgjs.dev/svgjs" width="300" height="300"><svg width="300" height="300" viewBox="0 0 300 300" fill="none" xmlns="http://www.w3.org/2000/svg">
<path d="M149.57 107.338C127.132 107.338 108.942 126.421 108.942 149.963C108.942 173.504 127.132 192.587 149.57 192.587C172.009 192.587 190.198 173.504 190.198 149.963C190.198 126.421 172.009 107.338 149.57 107.338Z" fill="#0D6EFD"></path>
<path fill-rule="evenodd" clip-rule="evenodd" d="M246.454 285L146.936 285C76.9215 283.725 20.5381 223.761 20.5381 150C20.5381 75.4416 78.1479 15 149.213 15C219.124 15 276.013 73.4941 277.843 146.378L277.62 255.99C275.768 272.352 262.547 285 246.454 285ZM66.7693 130.596C75.1958 90.7636 109.068 60.9779 149.57 60.9779C196.413 60.9779 234.386 100.818 234.386 149.963C234.386 150.331 234.39 150.731 234.395 151.141C234.404 151.993 234.413 152.891 234.386 153.651V238.344H190.259V228.058C178.18 235 164.314 238.947 149.57 238.947C109.068 238.947 75.1958 209.161 66.7693 169.329C74.8367 166.956 80.7527 159.184 80.7527 149.963C80.7527 140.741 74.8367 132.969 66.7693 130.596ZM61.1719 164.143C68.6678 164.143 74.7445 157.768 74.7445 149.904C74.7445 142.039 68.6678 135.664 61.1719 135.664C53.6759 135.664 47.5992 142.039 47.5992 149.904C47.5992 157.768 53.6759 164.143 61.1719 164.143Z" fill="#0D6EFD"></path>
</svg><style>@media (prefers-color-scheme: light) { :root { filter: none; } }
@media (prefers-color-scheme: dark) { :root { filter: none; } }
</style></svg>