<svg version="1.0" xmlns="http://www.w3.org/2000/svg" width="682.667" height="682.667" viewBox="0 0 512 512"><path d="M234.5 106.4c-24.4 4-47 13.3-66.8 27.3-17.7 12.5-37.2 35.3-47.1 55.2-3.7 7.2-10.6 25.2-10.6 27.4 0 .7 2.7 2.6 6.1 4.2 11.9 5.7 20.6 17.4 22.9 30.7 3 17.3-6.8 36-22.8 43.4-3.4 1.6-6.2 3.4-6.2 4.1 0 2.4 6.4 19.1 10.2 26.8 22.7 45.2 65.7 76.3 115.8 83.5 11 1.6 34.9 1.4 45.5-.5 16.6-2.9 29.5-7 41.7-13.1 3.7-1.9 7-3.4 7.3-3.4.3 0 .5 4 .5 9v9h79v-80.8c0-49.8-.4-84-1-89.2-4.5-36.1-20.6-68.2-46.8-93.1-20.9-19.9-45.4-32.8-74.4-39-12-2.6-41.5-3.5-53.3-1.5zm43 80.7c25.4 7.8 43.7 26.5 50.6 51.4 2.6 9.6 2.8 27.4.4 37-2.6 10.3-9.7 23.4-17 31.3-39.4 42.5-108 26.4-125.2-29.4-2.6-8.4-2.5-31.4.1-39.9 8.2-26.8 29.4-46.3 56.6-52.1 9.1-1.9 25.5-1.1 34.5 1.7z"/><path d="M88.7 231.4c-18.6 6.7-24.1 32-9.9 45.9 17 16.5 45.3 6.1 47-17.2.6-9.4-1.6-15.7-7.7-22-7.3-7.5-19.4-10.2-29.4-6.7z"/></svg>