<svg width="162" height="57" viewBox="0 0 162 57" fill="none" xmlns="http://www.w3.org/2000/svg">
<g clip-path="url(#clip0_1_2)">
<g clip-path="url(#clip1_1_2)">
<path d="M39.4636 45.928C39.5339 45.928 39.6028 45.928 39.6729 45.928C41.8571 45.928 43.6516 44.2918 43.9029 42.1752L43.9331 27.9955C43.6848 18.567 35.9637 11 26.4753 11C16.8302 11 9.01126 18.8189 9.01126 28.464C9.01126 38.0059 16.6637 45.7631 26.1663 45.928H39.4636Z" fill="#8B44AC"/>
<path fill-rule="evenodd" clip-rule="evenodd" d="M26.5238 16.9478C21.0267 16.9478 16.4296 20.801 15.2859 25.9538C16.3808 26.2607 17.1838 27.2662 17.1838 28.4591C17.1838 29.6521 16.3808 30.6575 15.2859 30.9645C16.4296 36.1173 21.0267 39.9705 26.5238 39.9705C28.5249 39.9705 30.4067 39.4599 32.0461 38.5619V39.8925H38.0351V28.9363C38.0406 28.7907 38.0351 28.6061 38.0351 28.4591C38.0351 22.1016 32.8813 16.9478 26.5238 16.9478ZM21.0097 28.4591C21.0097 25.4138 23.4785 22.9451 26.5238 22.9451C29.5692 22.9451 32.0379 25.4138 32.0379 28.4591C32.0379 31.5045 29.5692 33.9732 26.5238 33.9732C23.4785 33.9732 21.0097 31.5045 21.0097 28.4591Z" fill="#F9F9FB"/>
<path d="M16.3683 28.4515C16.3683 29.4689 15.5436 30.2936 14.5262 30.2936C13.5089 30.2936 12.6841 29.4689 12.6841 28.4515C12.6841 27.4341 13.5089 26.6094 14.5262 26.6094C15.5436 26.6094 16.3683 27.4341 16.3683 28.4515Z" fill="#F9F9FB"/>
</g>
<path d="M54.0268 35.3807C53.7239 35.3807 53.4778 35.3113 53.2885 35.1725C53.1117 35.0337 53.0045 34.8507 52.9666 34.6236C52.9287 34.3838 52.9729 34.1188 53.0991 33.8286L58.0973 22.755C58.2614 22.389 58.457 22.1303 58.6842 21.9789C58.924 21.8148 59.1954 21.7328 59.4983 21.7328C59.7886 21.7328 60.0473 21.8148 60.2745 21.9789C60.5144 22.1303 60.7163 22.389 60.8804 22.755L65.8975 33.8286C66.0363 34.1188 66.0868 34.3838 66.0489 34.6236C66.0111 34.8633 65.9038 35.0526 65.7271 35.1915C65.5504 35.3176 65.3169 35.3807 65.0266 35.3807C64.6732 35.3807 64.3955 35.2987 64.1936 35.1347C64.0042 34.958 63.8338 34.693 63.6824 34.3396L62.4518 31.4813L63.4741 32.1439H55.4846L56.507 31.4813L55.2953 34.3396C55.1312 34.7056 54.9608 34.9706 54.7841 35.1347C54.6074 35.2987 54.355 35.3807 54.0268 35.3807ZM59.4604 24.5154L56.8099 30.8188L56.3176 30.2131H62.6411L62.1678 30.8188L59.4983 24.5154H59.4604Z" fill="white"/>
<path d="M70.968 35.3807C70.6525 35.3807 70.3748 35.2987 70.135 35.1347C69.9078 34.9706 69.7184 34.7182 69.567 34.3775L66.5567 27.3926C66.4431 27.115 66.399 26.8563 66.4242 26.6165C66.4621 26.3768 66.5757 26.1875 66.765 26.0487C66.9669 25.8972 67.2383 25.8215 67.5791 25.8215C67.8694 25.8215 68.1029 25.8909 68.2796 26.0297C68.4563 26.1559 68.6141 26.402 68.7529 26.768L71.3088 33.1471H70.7408L73.3724 26.749C73.5113 26.3957 73.669 26.1559 73.8457 26.0297C74.0351 25.8909 74.2875 25.8215 74.603 25.8215C74.8807 25.8215 75.1016 25.8972 75.2657 26.0487C75.4297 26.1875 75.5307 26.3768 75.5686 26.6165C75.6065 26.8437 75.5623 27.0961 75.4361 27.3737L72.369 34.3775C72.2302 34.7182 72.0408 34.9706 71.801 35.1347C71.5738 35.2987 71.2962 35.3807 70.968 35.3807Z" fill="white"/>
<path d="M80.0665 35.4186C79.3976 35.4186 78.7981 35.2924 78.2679 35.04C77.7505 34.775 77.3403 34.4217 77.0373 33.98C76.747 33.5383 76.6019 33.0398 76.6019 32.4846C76.6019 31.8031 76.7786 31.2668 77.132 30.8756C77.4854 30.4718 78.0597 30.1815 78.8549 30.0049C79.65 29.8282 80.7165 29.7399 82.0544 29.7399H83.0011V31.1028H82.0734C81.2908 31.1028 80.6661 31.1406 80.1991 31.2163C79.7321 31.292 79.3976 31.4245 79.1956 31.6138C79.0063 31.7905 78.9116 32.0429 78.9116 32.371C78.9116 32.7874 79.0568 33.1282 79.3471 33.3932C79.6374 33.6582 80.0413 33.7907 80.5588 33.7907C80.9753 33.7907 81.3413 33.696 81.6569 33.5068C81.985 33.3048 82.2438 33.0335 82.4331 32.6928C82.6224 32.3521 82.7171 31.9609 82.7171 31.5192V29.3423C82.7171 28.7114 82.5782 28.2571 82.3006 27.9794C82.0229 27.7018 81.5559 27.563 80.8996 27.563C80.5335 27.563 80.136 27.6072 79.7068 27.6955C79.2903 27.7838 78.8485 27.9353 78.3815 28.1498C78.1417 28.2634 77.9272 28.2949 77.7378 28.2445C77.5611 28.194 77.4223 28.093 77.3213 27.9416C77.2203 27.7775 77.1699 27.6009 77.1699 27.4116C77.1699 27.2223 77.2203 27.0393 77.3213 26.8626C77.4223 26.6733 77.5927 26.5345 77.8325 26.4462C78.4131 26.2064 78.9684 26.0361 79.4986 25.9351C80.0413 25.8341 80.5335 25.7837 80.9753 25.7837C81.8841 25.7837 82.6287 25.9225 83.2093 26.2001C83.8025 26.4777 84.2443 26.9005 84.5346 27.4684C84.8249 28.0236 84.97 28.7429 84.97 29.6263V34.1693C84.97 34.5605 84.8754 34.8633 84.6861 35.0779C84.4967 35.2798 84.2254 35.3807 83.872 35.3807C83.5186 35.3807 83.2409 35.2798 83.0389 35.0779C82.8496 34.8633 82.7549 34.5605 82.7549 34.1693V33.2607H82.9064C82.8181 33.7024 82.6414 34.0873 82.3763 34.4154C82.1239 34.7308 81.802 34.9769 81.4107 35.1536C81.0195 35.3303 80.5714 35.4186 80.0665 35.4186Z" fill="white"/>
<path d="M90.5338 35.4186C89.4862 35.4186 88.6974 35.122 88.1673 34.5289C87.6372 33.9232 87.3721 33.0398 87.3721 31.8789V22.9254C87.3721 22.5342 87.4731 22.2376 87.675 22.0357C87.877 21.8338 88.1673 21.7328 88.5459 21.7328C88.9246 21.7328 89.2149 21.8338 89.4168 22.0357C89.6314 22.2376 89.7387 22.5342 89.7387 22.9254V31.7653C89.7387 32.3458 89.8586 32.7748 90.0984 33.0525C90.3508 33.3301 90.7042 33.4689 91.1586 33.4689C91.2596 33.4689 91.3542 33.4689 91.4426 33.4689C91.5309 33.4563 91.6193 33.4437 91.7076 33.431C91.8843 33.4058 92.0043 33.4563 92.0674 33.5825C92.1305 33.696 92.162 33.9358 92.162 34.3018C92.162 34.6173 92.0989 34.8633 91.9727 35.04C91.8465 35.2167 91.6382 35.324 91.3479 35.3618C91.2217 35.3744 91.0892 35.3871 90.9503 35.3997C90.8115 35.4123 90.6727 35.4186 90.5338 35.4186Z" fill="white"/>
<path d="M97.5474 35.4186C96.5882 35.4186 95.7552 35.223 95.0483 34.8318C94.3415 34.4406 93.7925 33.8853 93.4012 33.166C93.0099 32.4341 92.8143 31.576 92.8143 30.5917C92.8143 29.8471 92.9216 29.1846 93.1362 28.6041C93.3634 28.011 93.6852 27.5062 94.1017 27.0898C94.5182 26.6607 95.0168 26.3389 95.5974 26.1244C96.178 25.8972 96.828 25.7837 97.5474 25.7837C98.5067 25.7837 99.3397 25.9793 100.047 26.3705C100.753 26.7617 101.302 27.3169 101.694 28.0362C102.085 28.7555 102.281 29.6074 102.281 30.5917C102.281 31.3362 102.167 32.005 101.94 32.5982C101.725 33.1913 101.41 33.7024 100.993 34.1314C100.577 34.5479 100.078 34.8697 99.4975 35.0968C98.9169 35.3113 98.2669 35.4186 97.5474 35.4186ZM97.5474 33.6203C98.0144 33.6203 98.4246 33.5068 98.778 33.2796C99.1314 33.0525 99.4028 32.718 99.5921 32.2764C99.7941 31.8221 99.8951 31.2605 99.8951 30.5917C99.8951 29.5821 99.6805 28.8313 99.2514 28.3391C98.8222 27.8343 98.2542 27.5819 97.5474 27.5819C97.0804 27.5819 96.6702 27.6955 96.3168 27.9227C95.9634 28.1372 95.6857 28.4716 95.4838 28.9259C95.2945 29.3676 95.1998 29.9228 95.1998 30.5917C95.1998 31.5886 95.4144 32.3458 95.8435 32.8632C96.2726 33.3679 96.8406 33.6203 97.5474 33.6203Z" fill="white"/>
<path d="M105.408 35.3807C105.029 35.3807 104.739 35.2798 104.537 35.0779C104.335 34.8633 104.234 34.5605 104.234 34.1693V27.0141C104.234 26.6229 104.335 26.3263 104.537 26.1244C104.739 25.9225 105.023 25.8215 105.389 25.8215C105.755 25.8215 106.039 25.9225 106.241 26.1244C106.443 26.3263 106.544 26.6229 106.544 27.0141V28.3012L106.335 27.828C106.613 27.1592 107.042 26.6544 107.623 26.3137C108.216 25.9603 108.885 25.7837 109.63 25.7837C110.374 25.7837 110.986 25.9225 111.466 26.2001C111.946 26.4777 112.305 26.9005 112.545 27.4684C112.785 28.0236 112.905 28.7303 112.905 29.5884V34.1693C112.905 34.5605 112.804 34.8633 112.602 35.0779C112.4 35.2798 112.11 35.3807 111.731 35.3807C111.352 35.3807 111.056 35.2798 110.841 35.0779C110.639 34.8633 110.538 34.5605 110.538 34.1693V29.702C110.538 28.9827 110.4 28.459 110.122 28.1309C109.857 27.8028 109.44 27.6387 108.872 27.6387C108.178 27.6387 107.623 27.8596 107.206 28.3012C106.802 28.7303 106.6 29.3045 106.6 30.0238V34.1693C106.6 34.9769 106.203 35.3807 105.408 35.3807Z" fill="white"/>
<path d="M116.482 35.3618C116.104 35.3618 115.813 35.2482 115.612 35.0211C115.41 34.7939 115.309 34.4785 115.309 34.0746V27.1276C115.309 26.7112 115.41 26.3957 115.612 26.1812C115.813 25.954 116.104 25.8404 116.482 25.8404C116.861 25.8404 117.151 25.954 117.353 26.1812C117.568 26.3957 117.675 26.7112 117.675 27.1276V34.0746C117.675 34.4785 117.574 34.7939 117.372 35.0211C117.17 35.2482 116.874 35.3618 116.482 35.3618ZM116.482 24.08C116.041 24.08 115.694 23.9728 115.441 23.7582C115.201 23.5311 115.081 23.2219 115.081 22.8307C115.081 22.4269 115.201 22.1177 115.441 21.9032C115.694 21.6887 116.041 21.5814 116.482 21.5814C116.937 21.5814 117.284 21.6887 117.524 21.9032C117.764 22.1177 117.883 22.4269 117.883 22.8307C117.883 23.2219 117.764 23.5311 117.524 23.7582C117.284 23.9728 116.937 24.08 116.482 24.08Z" fill="white"/>
<path d="M123.182 35.4186C122.513 35.4186 121.914 35.2924 121.384 35.04C120.866 34.775 120.456 34.4217 120.153 33.98C119.863 33.5383 119.718 33.0398 119.718 32.4846C119.718 31.8031 119.894 31.2668 120.248 30.8756C120.601 30.4718 121.175 30.1815 121.971 30.0049C122.766 29.8282 123.832 29.7399 125.17 29.7399H126.117V31.1028H125.189C124.407 31.1028 123.782 31.1406 123.315 31.2163C122.848 31.292 122.513 31.4245 122.311 31.6138C122.122 31.7905 122.027 32.0429 122.027 32.371C122.027 32.7874 122.173 33.1282 122.463 33.3932C122.753 33.6582 123.157 33.7907 123.675 33.7907C124.091 33.7907 124.457 33.696 124.773 33.5068C125.101 33.3048 125.36 33.0335 125.549 32.6928C125.738 32.3521 125.833 31.9609 125.833 31.5192V29.3423C125.833 28.7114 125.694 28.2571 125.416 27.9794C125.139 27.7018 124.672 27.563 124.015 27.563C123.649 27.563 123.252 27.6072 122.823 27.6955C122.406 27.7838 121.964 27.9353 121.497 28.1498C121.258 28.2634 121.043 28.2949 120.854 28.2445C120.677 28.194 120.538 28.093 120.437 27.9416C120.336 27.7775 120.286 27.6009 120.286 27.4116C120.286 27.2223 120.336 27.0393 120.437 26.8626C120.538 26.6733 120.708 26.5345 120.948 26.4462C121.529 26.2064 122.084 26.0361 122.614 25.9351C123.157 25.8341 123.649 25.7837 124.091 25.7837C125 25.7837 125.745 25.9225 126.325 26.2001C126.918 26.4777 127.36 26.9005 127.65 27.4684C127.941 28.0236 128.086 28.7429 128.086 29.6263V34.1693C128.086 34.5605 127.991 34.8633 127.802 35.0779C127.613 35.2798 127.341 35.3807 126.988 35.3807C126.634 35.3807 126.357 35.2798 126.155 35.0779C125.965 34.8633 125.871 34.5605 125.871 34.1693V33.2607H126.022C125.934 33.7024 125.757 34.0873 125.492 34.4154C125.24 34.7308 124.918 34.9769 124.527 35.1536C124.135 35.3303 123.687 35.4186 123.182 35.4186Z" fill="white"/>
<path d="M141.402 35.4186C140.481 35.4186 139.667 35.2987 138.96 35.0589C138.266 34.8192 137.679 34.4658 137.199 33.9989C136.72 33.5194 136.36 32.9263 136.12 32.2196C135.88 31.5129 135.76 30.6926 135.76 29.7588V22.9632C135.76 22.5468 135.861 22.2376 136.063 22.0357C136.278 21.8338 136.581 21.7328 136.972 21.7328C137.363 21.7328 137.66 21.8338 137.862 22.0357C138.076 22.2376 138.184 22.5468 138.184 22.9632V29.7399C138.184 30.9387 138.455 31.841 138.998 32.4467C139.553 33.0398 140.355 33.3364 141.402 33.3364C142.45 33.3364 143.245 33.0398 143.788 32.4467C144.33 31.841 144.602 30.9387 144.602 29.7399V22.9632C144.602 22.5468 144.703 22.2376 144.905 22.0357C145.119 21.8338 145.422 21.7328 145.813 21.7328C146.192 21.7328 146.482 21.8338 146.684 22.0357C146.899 22.2376 147.006 22.5468 147.006 22.9632V29.7588C147.006 30.9955 146.792 32.0366 146.362 32.8821C145.946 33.7276 145.321 34.3649 144.488 34.7939C143.655 35.2104 142.626 35.4186 141.402 35.4186Z" fill="white"/>
<path d="M151.044 35.3807C150.653 35.3807 150.35 35.2735 150.135 35.0589C149.933 34.8318 149.832 34.5226 149.832 34.1314V22.9821C149.832 22.5783 149.933 22.2691 150.135 22.0546C150.35 21.8401 150.653 21.7328 151.044 21.7328C151.435 21.7328 151.732 21.8401 151.934 22.0546C152.149 22.2691 152.256 22.5783 152.256 22.9821V34.1314C152.256 34.5226 152.155 34.8318 151.953 35.0589C151.751 35.2735 151.448 35.3807 151.044 35.3807Z" fill="white"/>
</g>
<defs>
<clipPath id="clip0_1_2">
<rect width="162" height="57" fill="white"/>
</clipPath>
<clipPath id="clip1_1_2">
<rect width="35" height="35" fill="white" transform="translate(9 11)"/>
</clipPath>
</defs>
</svg>
