<svg width="868" height="112" viewBox="0 0 868 112" fill="none" xmlns="http://www.w3.org/2000/svg">
<g clip-path="url(#clip0_13_307)">
<path d="M55.972 0C86.8845 0 111.944 25.0721 111.944 56V98C111.944 105.732 105.679 112 97.9511 112H55.972C25.0595 112 0 86.9279 0 56C0 25.0721 25.0595 0 55.972 0ZM55.972 16.3333C38.1284 16.3333 23.0379 28.1271 18.0626 44.3484C24.2385 44.6464 29.1521 49.7491 29.1521 56C29.1521 62.2517 24.2373 67.3549 18.0626 67.6529C22.9373 83.546 37.5248 95.1902 54.8981 95.6524C62.0883 95.4921 67.8876 93.9412 72.2972 91V95.6667H95.6189V56C95.6189 34.5963 78.6751 17.1521 57.4754 16.3613L56.7254 16.3404L55.972 16.3333ZM55.972 37.3333C66.2762 37.3333 74.6294 45.6907 74.6294 56C74.6294 66.3093 66.2762 74.6667 55.972 74.6667C45.6679 74.6667 37.3147 66.3093 37.3147 56C37.3147 45.6907 45.6679 37.3333 55.972 37.3333ZM17.4913 47.8333C12.9832 47.8333 9.32867 51.4897 9.32867 56C9.32867 60.5103 12.9832 64.1667 17.4913 64.1667C21.9993 64.1667 25.6538 60.5103 25.6538 56C25.6538 51.4897 21.9993 47.8333 17.4913 47.8333Z" fill="#05051E"/>
</g>
<path d="M212.835 35.6008C208.726 30.4382 202.427 27.5804 195.214 27.5804C179.876 27.5804 167.916 39.5649 167.916 55.7902C167.916 72.1076 179.876 84 195.214 84C202.792 84 209.091 80.8656 212.835 75.8874V82.8937H223.79V28.6866H212.835V35.6008ZM196.31 73.1217C186.815 73.1217 179.602 65.7466 179.602 55.6058C179.602 45.5572 186.815 38.1821 196.31 38.1821C205.896 38.1821 213.108 45.5572 213.108 55.6058C213.108 65.7466 205.896 73.1217 196.31 73.1217ZM253.143 83.6312C259.077 83.6312 261.268 80.4046 263.003 73.8592L276.606 28.6866H265.194L253.325 71.1857L241.548 28.6866H229.588L243.191 74.0436C244.926 80.4046 247.391 83.6312 253.143 83.6312ZM322.848 35.6008C318.74 30.4382 312.44 27.5804 305.228 27.5804C289.89 27.5804 277.93 39.5649 277.93 55.7902C277.93 72.1076 289.89 84 305.228 84C312.806 84 319.105 80.8656 322.848 75.8874V82.8937H333.804V28.6866H322.848V35.6008ZM306.323 73.1217C296.828 73.1217 289.616 65.7466 289.616 55.6058C289.616 45.5572 296.828 38.1821 306.323 38.1821C315.91 38.1821 323.122 45.5572 323.122 55.6058C323.122 65.7466 315.91 73.1217 306.323 73.1217ZM355.944 82.8937V18.3615H344.44V82.8937H355.944ZM391.961 84C408.029 84 420.263 72.1998 420.263 55.7902C420.263 39.5649 408.029 27.5804 391.961 27.5804C375.892 27.5804 363.75 39.5649 363.75 55.7902C363.75 72.1076 375.892 84 391.961 84ZM391.961 73.2139C382.374 73.2139 375.162 65.9309 375.162 55.7902C375.162 45.5572 382.374 38.2743 391.961 38.2743C401.547 38.2743 408.759 45.465 408.759 55.7902C408.759 65.9309 401.638 73.2139 391.961 73.2139ZM453.45 27.5804C447.515 27.5804 442.22 29.8851 439.025 34.0336V28.6866H428.069V82.8937H439.572V50.4432C439.572 43.1603 444.229 38.4587 451.259 38.4587C457.923 38.4587 462.214 42.8837 462.214 50.351V82.8937H473.718V48.4151C473.718 35.7852 465.501 27.5804 453.45 27.5804ZM490.014 30.4382C493.94 30.4382 497.136 27.3038 497.136 23.3397C497.136 19.5599 493.94 16.3333 490.014 16.3333C485.997 16.3333 482.893 19.5599 482.893 23.3397C482.893 27.3038 485.997 30.4382 490.014 30.4382ZM495.766 82.8937V35.8774H484.171V82.8937H495.766ZM548.765 35.6008C544.656 30.4382 538.357 27.5804 531.144 27.5804C515.806 27.5804 503.846 39.5649 503.846 55.7902C503.846 72.1076 515.806 84 531.144 84C538.722 84 545.021 80.8656 548.765 75.8874V82.8937H559.72V28.6866H548.765V35.6008ZM532.24 73.1217C522.745 73.1217 515.532 65.7466 515.532 55.6058C515.532 45.5572 522.745 38.1821 532.24 38.1821C541.826 38.1821 549.038 45.5572 549.038 55.6058C549.038 65.7466 541.826 73.1217 532.24 73.1217Z" fill="#05051E"/>
<path d="M616 16H636.877C643.186 16 648.908 17.299 654.042 19.897C659.176 22.4331 663.258 26.2372 666.289 31.3095C669.32 36.3198 670.836 42.3508 670.836 49.4025C670.836 56.516 669.32 62.6088 666.289 67.681C663.258 72.6914 659.176 76.4956 654.042 79.0936C648.908 81.6297 643.186 82.8977 636.877 82.8977H616V16ZM636.227 73.3409C640.495 73.3409 644.392 72.5368 647.918 70.9285C651.506 69.2584 654.382 66.6295 656.547 63.0418C658.712 59.4541 659.794 54.9077 659.794 49.4025C659.794 43.9591 658.712 39.4436 656.547 35.8559C654.382 32.2682 651.506 29.6703 647.918 28.062C644.392 26.3919 640.495 25.5568 636.227 25.5568H626.763V73.3409H636.227Z" fill="#DBD5D2"/>
<path d="M700.929 83.64C696.29 83.64 692.115 82.5884 688.403 80.4853C684.754 78.3204 681.908 75.3512 679.867 71.578C677.826 67.8048 676.805 63.5367 676.805 58.7737C676.805 54.0108 677.826 49.7736 679.867 46.0622C681.908 42.289 684.754 39.3508 688.403 37.2477C692.115 35.0827 696.29 34.0002 700.929 34.0002C705.568 34.0002 709.713 35.0827 713.362 37.2477C717.074 39.3508 719.981 42.289 722.084 46.0622C724.187 49.7736 725.239 54.0108 725.239 58.7737C725.239 63.5367 724.187 67.8048 722.084 71.578C719.981 75.3512 717.074 78.3204 713.362 80.4853C709.713 82.5884 705.568 83.64 700.929 83.64ZM700.929 74.8255C703.713 74.8255 706.125 74.145 708.166 72.7842C710.269 71.4234 711.909 69.5367 713.084 67.1243C714.259 64.6501 714.847 61.8665 714.847 58.7737C714.847 55.6809 714.259 52.9283 713.084 50.5159C711.909 48.1035 710.239 46.2169 708.074 44.856C705.97 43.4952 703.589 42.8148 700.929 42.8148C698.269 42.8148 695.857 43.4952 693.692 44.856C691.589 46.2169 689.95 48.1344 688.774 50.6087C687.661 53.0211 687.104 55.7428 687.104 58.7737C687.104 61.9284 687.661 64.7119 688.774 67.1243C689.95 69.5367 691.589 71.4234 693.692 72.7842C695.795 74.145 698.207 74.8255 700.929 74.8255Z" fill="#DBD5D2"/>
<path d="M754.654 83.64C750.015 83.64 745.902 82.6194 742.314 80.5781C738.726 78.475 735.912 75.5368 733.871 71.7636C731.891 67.9903 730.901 63.6604 730.901 58.7737C730.901 53.8871 731.891 49.588 733.871 45.8767C735.912 42.1034 738.726 39.1962 742.314 37.1549C745.902 35.0518 750.015 34.0002 754.654 34.0002C760.531 34.0002 765.417 35.5776 769.314 38.7322C773.211 41.8251 775.562 46.2787 776.366 52.0932H766.438C765.943 49.3715 764.613 47.1447 762.448 45.4127C760.345 43.6808 757.809 42.8148 754.84 42.8148C750.696 42.8148 747.386 44.2684 744.912 47.1756C742.438 50.0829 741.201 53.9489 741.201 58.7737C741.201 63.5985 742.438 67.4955 744.912 70.4646C747.448 73.3718 750.757 74.8255 754.84 74.8255C757.871 74.8255 760.407 73.9904 762.448 72.3203C764.551 70.6502 765.881 68.2687 766.438 65.1759H776.366C775.438 71.2996 773.057 75.908 769.222 79.0008C765.386 82.0936 760.531 83.64 754.654 83.64Z" fill="#DBD5D2"/>
<path d="M801.316 83.64C797.357 83.64 793.831 82.9287 790.738 81.506C787.707 80.0214 785.295 77.9801 783.501 75.3822C781.769 72.7842 780.841 69.846 780.717 66.5676H790.645C790.769 68.7945 791.821 70.7429 793.8 72.4131C795.841 74.0832 798.346 74.9182 801.316 74.9182C803.975 74.9182 806.109 74.3615 807.718 73.2481C809.388 72.1347 810.223 70.7429 810.223 69.0728C810.223 67.5264 809.697 66.3202 808.646 65.4542C807.656 64.5264 806.202 63.8459 804.285 63.413L796.305 61.5573C792.223 60.6294 788.944 59.1139 786.47 57.0108C784.058 54.8458 782.851 51.6912 782.851 47.5468C782.851 45.0107 783.563 42.722 784.985 40.6807C786.47 38.6395 788.542 37.0312 791.202 35.8559C793.862 34.6188 796.924 34.0002 800.388 34.0002C805.522 34.0002 809.852 35.3611 813.378 38.0827C816.903 40.7426 818.976 44.3612 819.594 48.9385H809.666C809.419 46.8973 808.398 45.289 806.604 44.1137C804.872 42.8766 802.8 42.2581 800.388 42.2581C798.161 42.2581 796.367 42.7529 795.006 43.7426C793.645 44.6705 792.965 45.9385 792.965 47.5468C792.965 48.7839 793.46 49.8664 794.45 50.7942C795.439 51.6602 796.831 52.2788 798.625 52.6499L806.604 54.4128C811.058 55.4025 814.491 56.949 816.903 59.0521C819.316 61.0933 820.522 64.3408 820.522 68.7945C820.522 71.578 819.718 74.1141 818.11 76.4028C816.501 78.6296 814.244 80.3925 811.336 81.6915C808.429 82.9905 805.089 83.64 801.316 83.64Z" fill="#DBD5D2"/>
<defs>
<clipPath id="clip0_13_307">
<rect width="111.944" height="112" fill="white"/>
</clipPath>
</defs>
</svg>
