<svg width="815" height="116" viewBox="0 0 815 116" fill="none" xmlns="http://www.w3.org/2000/svg">
<g clip-path="url(#clip0_1_213)">
<path d="M55.972 4C86.8845 4 111.944 29.0721 111.944 60V102C111.944 109.732 105.679 116 97.9511 116H55.972C25.0595 116 0 90.9279 0 60C0 29.0721 25.0595 4 55.972 4ZM55.972 20.3333C38.1284 20.3333 23.0379 32.1271 18.0626 48.3484C24.2385 48.6464 29.1521 53.7491 29.1521 60C29.1521 66.2517 24.2373 71.3549 18.0626 71.6529C22.9373 87.546 37.5248 99.1902 54.8981 99.6524C62.0883 99.4921 67.8876 97.9412 72.2972 95V99.6667H95.6189V60C95.6189 38.5963 78.6751 21.1521 57.4754 20.3613L56.7254 20.3404L55.972 20.3333ZM55.972 41.3333C66.2762 41.3333 74.6294 49.6907 74.6294 60C74.6294 70.3093 66.2762 78.6667 55.972 78.6667C45.6679 78.6667 37.3147 70.3093 37.3147 60C37.3147 49.6907 45.6679 41.3333 55.972 41.3333ZM17.4913 51.8333C12.9832 51.8333 9.32867 55.4897 9.32867 60C9.32867 64.5103 12.9832 68.1667 17.4913 68.1667C21.9993 68.1667 25.6538 64.5103 25.6538 60C25.6538 55.4897 21.9993 51.8333 17.4913 51.8333Z" fill="#05051E"/>
</g>
<path d="M208.25 39.83V33.08H219.05V86H208.25V79.16C204.56 84.02 198.35 87.08 190.88 87.08C175.76 87.08 163.97 75.47 163.97 59.54C163.97 43.7 175.76 32 190.88 32C197.99 32 204.2 34.79 208.25 39.83ZM191.96 76.46C201.41 76.46 208.52 69.26 208.52 59.36C208.52 49.55 201.41 42.35 191.96 42.35C182.6 42.35 175.49 49.55 175.49 59.36C175.49 69.26 182.6 76.46 191.96 76.46ZM249.109 86.72C243.439 86.72 241.009 83.57 239.299 77.36L225.889 33.08H237.679L249.289 74.57L260.989 33.08H272.239L258.829 77.18C257.119 83.57 254.959 86.72 249.109 86.72ZM318.992 39.83V33.08H329.792V86H318.992V79.16C315.302 84.02 309.092 87.08 301.622 87.08C286.502 87.08 274.712 75.47 274.712 59.54C274.712 43.7 286.502 32 301.622 32C308.732 32 314.942 34.79 318.992 39.83ZM302.702 76.46C312.152 76.46 319.262 69.26 319.262 59.36C319.262 49.55 312.152 42.35 302.702 42.35C293.342 42.35 286.232 49.55 286.232 59.36C286.232 69.26 293.342 76.46 302.702 76.46ZM352.741 86H341.401V23H352.741V86ZM389.358 87.08C373.518 87.08 361.548 75.47 361.548 59.54C361.548 43.7 373.518 32 389.358 32C405.198 32 417.258 43.7 417.258 59.54C417.258 75.56 405.198 87.08 389.358 87.08ZM389.358 76.55C398.898 76.55 405.918 69.44 405.918 59.54C405.918 49.46 398.808 42.44 389.358 42.44C379.908 42.44 372.798 49.55 372.798 59.54C372.798 69.44 379.908 76.55 389.358 76.55ZM451.059 32C462.939 32 471.039 40.01 471.039 52.34V86H459.699V54.23C459.699 46.94 455.469 42.62 448.899 42.62C441.969 42.62 437.379 47.21 437.379 54.32V86H426.039V33.08H436.839V38.3C439.989 34.25 445.209 32 451.059 32ZM488.232 34.79C484.272 34.79 481.212 31.73 481.212 27.86C481.212 24.17 484.272 21.02 488.232 21.02C492.102 21.02 495.252 24.17 495.252 27.86C495.252 31.73 492.102 34.79 488.232 34.79ZM493.902 86H482.472V40.1H493.902V86ZM547.244 39.83V33.08H558.044V86H547.244V79.16C543.554 84.02 537.344 87.08 529.874 87.08C514.754 87.08 502.964 75.47 502.964 59.54C502.964 43.7 514.754 32 529.874 32C536.984 32 543.194 34.79 547.244 39.83ZM530.954 76.46C540.404 76.46 547.514 69.26 547.514 59.36C547.514 49.55 540.404 42.35 530.954 42.35C521.594 42.35 514.484 49.55 514.484 59.36C514.484 69.26 521.594 76.46 530.954 76.46ZM633.846 39.29V23H645.186V86H634.386V79.07C630.696 84.02 624.486 87.08 617.016 87.08C601.896 87.08 590.106 75.47 590.106 59.54C590.106 43.7 601.896 32 617.016 32C623.946 32 629.976 34.79 633.846 39.29ZM618.096 76.46C627.546 76.46 634.656 69.26 634.656 59.36C634.656 49.55 627.546 42.35 618.096 42.35C608.736 42.35 601.626 49.55 601.626 59.36C601.626 69.26 608.736 76.46 618.096 76.46ZM681.725 87.08C665.885 87.08 653.915 75.47 653.915 59.54C653.915 43.7 665.885 32 681.725 32C697.565 32 709.625 43.7 709.625 59.54C709.625 75.56 697.565 87.08 681.725 87.08ZM681.725 76.55C691.265 76.55 698.285 69.44 698.285 59.54C698.285 49.46 691.175 42.44 681.725 42.44C672.275 42.44 665.165 49.55 665.165 59.54C665.165 69.44 672.275 76.55 681.725 76.55ZM743.336 87.08C727.676 87.08 715.526 75.47 715.526 59.54C715.526 43.7 727.676 32 743.336 32C755.576 32 765.386 38.93 769.256 49.37L759.266 53.15C756.926 46.58 750.896 42.44 743.696 42.44C734.246 42.44 727.046 49.64 727.046 59.45C727.046 69.17 734.156 76.37 743.696 76.37C751.256 76.37 757.376 71.78 759.176 64.76L769.616 67.91C766.466 79.34 756.296 87.08 743.336 87.08ZM793.405 87.08C782.515 87.08 774.955 80.78 774.325 70.16H785.395C785.845 75.02 789.175 77.9 793.495 77.9C797.815 77.9 800.695 75.29 800.695 71.78C800.695 67.19 797.275 65.93 789.175 63.77C781.075 61.52 774.865 56.75 774.865 47.57C774.865 38.66 782.065 32 792.775 32C803.395 32 810.235 38.12 811.045 48.11H799.975C799.705 43.7 796.645 41.09 792.775 41.09C788.635 41.09 785.935 43.7 785.935 46.85C785.935 50.9 788.545 52.25 796.825 54.59C805.105 56.93 811.675 61.97 811.675 70.88C811.675 80.87 804.385 87.08 793.405 87.08Z" fill="black"/>
<defs>
<clipPath id="clip0_1_213">
<rect width="111.944" height="112" fill="white" transform="translate(0 4)"/>
</clipPath>
</defs>
</svg>
