<svg height="75" viewBox="0 0 162 49" width="250" xmlns="http://www.w3.org/2000/svg" xmlns:xlink="http://www.w3.org/1999/xlink"><linearGradient id="a" x1="49.998891%" x2="49.998891%" y1="85.214974%" y2="-21.428571%"><stop offset="0" stop-color="#8bc53f"/><stop offset=".17" stop-color="#91bf3e"/><stop offset=".4" stop-color="#a2af3c"/><stop offset=".66" stop-color="#bd9538"/><stop offset=".95" stop-color="#e47133"/><stop offset=".97" stop-color="#e76e33"/></linearGradient><g fill="none"><g fill="#74b64a"><path d="m70 11h3.3580247l2.6111111 9.8761526 3.0493827-9.8761526h2.9814815l3.0283951 9.8761526 2.6111111-9.8761526h3.3604938l-3.8839506 14h-3.3135803l-3.291358-9.8749683-3.3135802 9.8749683h-3.3135803z"/><path d="m97.9868648 11h4.0238512l4.989284 13.9952643h-3.314898l-1.010197-2.9266808h-5.4187695l-.9896301 2.9314165h-3.2665054zm3.9355342 8.5491755-1.9574837-6.1469768-1.9562738 6.1469768z"/><path d="m113.626981 24.866012c-.816106-.0665798-1.627312-.1782362-2.429394-.3343875v-2.1775965c1.30976.1118508 2.966636.1673879 4.970626.1666111.898855 0 1.576103-.1021415 2.031744-.3064247.45564-.2042832.683875-.5674101.684703-1.0893808v-.5021638c0-.4085664-.143319-.7219818-.429959-.9402464-.286639-.2182645-.695473-.32662-1.226502-.3250665h-1.391775c-1.618767 0-2.829943-.2978806-3.633527-.8936419-.803585-.5957612-1.204549-1.5697958-1.202892-2.9221038v-.6699401c0-2.5803373 1.759602-3.8708944 5.278805-3.8716711.856233.0017261 1.711691.0484037 2.562357.1398136.883115.093209 1.678001.2019529 2.384658.3262317v2.1775965c-2.017246-.1118509-3.541157-.1677763-4.571733-.1677763-.838379 0-1.471719.1083555-1.900022.3250666-.428302.216711-.641625.6171216-.639968 1.2012317v.3716711c0 .4714825.158232.8159676.474695 1.0334554s.798614.3258433 1.446452.3250666h1.615453c1.412487 0 2.489456.3258433 3.230907.9775299.741452.6516867 1.114249 1.506103 1.118391 2.563249v.781791c0 1.0416111-.228649 1.8509764-.685946 2.4280958-.47746.5903072-1.154996 1.0106618-1.921147 1.1919108-.828438.2167111-1.851973.3250666-3.070604.3250666-.839208-.0023302-1.737648-.0469929-2.695322-.133988z"/><path d="m129.986434 11h4.024713l4.988853 13.9952643h-3.314612l-1.011319-2.9266808h-5.418301l-.989545 2.9314165h-3.266223zm3.935194 8.5491755-1.956105-6.1469768-1.957314 6.1469768z"/><path d="m143 11h6.639144c3.208557 0 4.812835 1.2237072 4.812835 3.6711216 0 .8321209-.205348 1.5098968-.616043 2.0333277-.420017.5296704-1.037681.8971072-1.733904 1.0314668.798237.1518324 1.522294.5367467 2.065027 1.0977838.554438.5676422.832085 1.3366041.832941 2.3068854 0 1.3879209-.422246 2.3779395-1.266738 2.9700559s-2.110374.8885693-3.797647.8893588h-6.930481zm6.660963 5.7695821c.440043.0203059.865838-.1468894 1.15508-.4535611.281497-.3031636.422246-.7065923.422246-1.2102859 0-.552642-.148449-.9564654-.445348-1.2114702-.324053-.2608631-.744753-.3961979-1.174331-.3777702h-3.241926v3.2530874zm.183529 5.7139232c1.291979 0 1.937968-.6118536 1.937968-1.8355608 0-.5297468-.178396-.9489652-.535187-1.2576552-.383679-.3182555-.887349-.4849342-1.402781-.4642193h-3.465241v3.5526984z"/><path d="m159 11h3v14h-3z"/></g><path d="m91 30h1.759044l1.3670831 4.935 1.5977186-4.935h1.5630636l1.5869636 4.935 1.3670831-4.935h1.759044l-2.0315046 7h-1.738729l-1.7243889-4.935-1.7351439 4.935h-1.735144z" fill="#f6921e"/><path d="m105.494253 30h2.011494l2.494253 7h-1.652778l-.506226-1.4645313h-2.712165l-.495051 1.4645313h-1.63378zm1.966794 4.2732812-.977809-3.0723437-.978928 3.0723437z" fill="#f6921e"/><path d="m113.479232 36.6125704c-.32026-.2582865-.480003-.680738-.479229-1.2673546l-.000003-5.3452158h1.651197v5.1175735c0 .4107776.24561.6158015.73683.6150719h2.611973v1.2673546h-3.048269c-.661406 0-1.152239-.1291432-1.472499-.3874296z" fill="#f6921e"/><path d="m120.48039 36.6125704c-.32026-.2582865-.48039-.680738-.48039-1.2673546v-5.3452158h1.652356v5.1175735c0 .4107776.245223.6158015.735669.6150719h2.611975v1.2673546h-3.047111c-.661406 0-1.1534-.1291432-1.472499-.3874296z" fill="#f6921e"/><path d="m128.661568 36.7011121c-.441045-.2000402-.661568-.6102675-.661568-1.2306819v-3.8812141c0-.5638813.202252-.9697599.606756-1.2176358.429399-.2535623.942567-.3834555 1.464627-.3707266 1.250053 0 2.557893.0405879 3.923518.1217636v1.1654514h-3.384321c-.531124 0-.796686.1909804-.796686.5729411v1.0056367l3.592097.0750151v1.1002209l-3.592097.0750151v.9588881c0 .4131265.25494.6196897.764819.6196897h3.421287v1.1621899c-1.086892.093497-2.349692.1406079-3.7884.1413327-.537704.0123738-1.070514-.0900218-1.550032-.2978859z" fill="#f6921e"/><path d="m137.55976 31.2575047h-2.55976v-1.2575047h7v1.2575047h-2.572874v5.7424953h-1.867366z" fill="#f6921e"/><path d="m54.3727731 8.96573691-.0910016-.45316804-.3640064-.36157025c-6.1080283-5.88756887-15.773613-8.15099862-24.0244259-8.15099862l-.0461075 7.69783058c-1.6865633-.0457989-3.2360174-.0457989-4.6944699 0l-.0461075-7.69783058c-8.2508129 0-17.91639763 2.26342975-24.02442592 8.15099862l-.36400645.36157025-.09100162.45316804c-2.27989375 8.91873279 1.04833859 28.48329889 20.15018389 40.03185259-19.83349827-18.6112259-17.46745633-35.6387741-16.87048574-38.6735537 5.47101699-4.98123277 14.13194384-6.52031679 17.73318104-6.74931128l-.0448941 4.34727961c-4.7866849.54356061-9.8475879 1.85606061-13.85893905 4.75464877-.90758943 6.6143251 1.86856646 14.3121556 5.88719775 20.8782713 3.1911232 5.3030303 7.2024743 9.5092976 11.8071559 13.5853995l2.0663433-22.46677-5.9454387 13.7722108c-3.6461313-4.2568871-10.1654869-13.2684229-10.3935976-23.7744491 4.923794-2.4900137 10.4845992-3.2601584 15.9556162-3.3059573 5.5620186-.0445936 11.7161544.7701447 16.73095 3.3059573-.2281108 10.5060262-6.7474663 19.517562-10.3935976 23.7744491l-5.9454388-13.7722108 2.0675567 22.4655648c4.6046816-4.076102 8.6148194-8.2871901 11.807156-13.5853995 4.0113511-6.5661157 6.7947871-14.2639463 5.8811309-20.8758609-3.966457-2.9009986-9.0722542-4.07489667-13.8601524-4.66305094l-.0448941-4.43767217c3.6012372.22658402 12.262164 1.76566804 17.733181 6.74931131.5933306 3.0347796 2.9630126 20.0611226-16.8656323 38.6735537 19.100632-11.5509642 22.4288643-31.1131198 20.1489705-40.03426309z" fill="url(#a)"/></g></svg>